<?xml version="1.0" standalone="no"?>
<!DOCTYPE svg PUBLIC "-//W3C//DTD SVG 20010904//EN"
 "http://www.w3.org/TR/2001/REC-SVG-20010904/DTD/svg10.dtd">
<svg version="1.0" xmlns="http://www.w3.org/2000/svg"
 width="980.000000pt" height="980.000000pt" viewBox="0 0 980.000000 980.000000"
 preserveAspectRatio="xMidYMid meet">

<g transform="translate(0.000000,980.000000) scale(0.100000,-0.100000)"
fill="#000000" stroke="none">
<path d="M4670 8810 c-993 -63 -1883 -471 -2575 -1181 -634 -651 -1012 -1470
-1096 -2379 -16 -165 -15 -554 0 -705 69 -676 284 -1284 644 -1820 85 -126
259 -355 300 -393 l24 -23 48 32 c62 42 170 83 270 103 44 9 150 30 235 46
245 49 497 115 735 194 393 131 629 245 776 374 113 100 194 388 200 710 1 51
6 95 11 98 5 3 3 12 -4 21 -7 9 17 -3 52 -27 36 -23 64 -46 62 -52 -1 -5 2 -7
7 -3 6 3 52 -19 104 -48 51 -30 115 -64 141 -75 26 -12 45 -26 41 -32 -3 -5 0
-7 8 -5 18 7 99 -29 89 -40 -4 -5 -2 -5 5 -1 6 3 34 -3 62 -14 77 -30 145 -35
220 -15 81 21 232 87 347 152 49 27 105 58 124 69 19 10 38 23 41 28 4 5 12 5
19 1 9 -6 11 -4 5 5 -6 10 -4 12 8 7 9 -3 19 -1 23 5 5 7 2 8 -6 3 -9 -5 -11
-4 -6 3 4 7 12 12 17 12 6 0 18 7 27 16 21 21 30 1 10 -23 -7 -9 -8 -14 -2
-10 8 5 13 -31 18 -121 22 -416 102 -610 309 -746 299 -196 969 -416 1587
-521 113 -19 173 -37 258 -78 37 -18 66 -27 71 -21 112 125 309 404 421 599
366 634 550 1399 511 2124 -31 581 -151 1047 -396 1546 -207 422 -440 742
-787 1081 -166 162 -228 216 -398 341 -576 424 -1220 675 -1922 747 -188 20
-470 27 -638 16z m945 -1795 c111 -31 210 -126 280 -270 53 -108 87 -224 121
-405 31 -170 61 -270 124 -409 l49 -109 -14 -80 c-48 -276 -152 -576 -257
-745 -70 -112 -86 -181 -69 -306 30 -215 26 -260 -26 -301 -34 -27 -122 -55
-135 -42 -5 5 -21 74 -34 152 -28 163 -52 229 -93 253 -51 30 -162 39 -326 26
-131 -9 -159 -9 -219 5 -64 15 -75 15 -143 0 -64 -14 -93 -15 -216 -5 -93 7
-166 8 -212 2 -151 -20 -165 -38 -206 -275 -22 -126 -33 -166 -47 -166 -28 0
-104 36 -130 61 -40 40 -48 84 -33 184 33 212 23 293 -52 408 -83 128 -168
349 -229 596 -36 145 -39 219 -15 340 9 47 24 169 32 273 17 218 31 282 86
394 89 182 263 332 446 384 86 25 144 25 237 0 253 -68 426 -65 719 11 192 50
251 54 362 24z m-2059 -1103 c13 -9 41 -247 49 -417 6 -118 24 -380 41 -577 7
-75 6 -78 -15 -78 -31 0 -98 72 -127 138 -101 227 -143 663 -82 864 17 58 93
98 134 70z m2897 -12 c40 -32 58 -100 64 -247 16 -367 -91 -754 -223 -809 -56
-24 -58 -22 -50 64 13 156 35 481 41 617 8 171 39 365 63 383 24 18 76 15 105
-8z m-1313 -1240 c154 -10 200 -24 263 -79 66 -58 107 -180 107 -316 0 -120
-49 -220 -136 -274 -67 -43 -204 -84 -237 -72 -36 14 -64 63 -78 134 l-12 57
-101 0 -101 0 -17 -72 c-30 -125 -69 -142 -207 -94 -180 63 -252 175 -238 367
8 105 41 200 89 254 57 64 119 85 298 97 79 5 147 12 150 14 3 3 22 3 43 0 20
-4 100 -10 177 -16z"/>
<path d="M4120 6146 c-88 -25 -188 -89 -235 -151 -15 -19 -26 -37 -24 -39 2
-2 36 4 74 14 151 38 352 34 562 -11 71 -15 97 -17 113 -9 22 12 60 67 60 86
0 17 -119 71 -217 99 -97 28 -253 33 -333 11z"/>
<path d="M5440 6139 c-41 -11 -110 -37 -152 -57 l-78 -37 20 -43 c26 -57 56
-68 135 -48 225 55 448 55 644 0 20 -6 22 -5 13 12 -16 31 -84 95 -132 126
-108 69 -293 89 -450 47z"/>
<path d="M4215 5820 c-76 -16 -150 -50 -197 -91 -27 -22 -48 -44 -48 -49 0 -5
14 -11 31 -15 25 -6 39 -1 74 24 23 17 55 35 69 41 25 9 26 9 19 -18 -22 -76
10 -154 68 -166 48 -9 118 -7 140 4 42 23 65 122 38 172 -6 11 -9 21 -7 24 3
2 38 -13 79 -33 41 -21 79 -39 84 -41 6 -3 -12 19 -40 48 -28 29 -72 62 -101
76 -59 26 -150 37 -209 24z"/>
<path d="M5533 5820 c-61 -13 -119 -46 -170 -96 -25 -25 -43 -47 -41 -49 2 -2
39 14 82 36 76 38 100 43 79 17 -31 -38 -22 -122 19 -165 16 -18 32 -23 67
-23 88 0 122 11 142 44 21 34 25 106 9 137 -6 10 -8 19 -5 19 14 0 102 -50
114 -64 16 -19 30 -20 68 -5 l28 11 -49 43 c-83 74 -238 117 -343 95z"/>
<path d="M4751 4939 c-42 -17 -5 -41 68 -45 34 -1 67 -6 74 -10 6 -3 0 5 -14
18 -48 47 -80 56 -128 37z m67 -12 c9 3 14 3 10 -1 -11 -12 -68 -18 -68 -7 0
6 7 8 15 5 9 -4 15 0 16 7 0 10 2 10 5 2 3 -7 13 -9 22 -6z"/>
<path d="M5053 4926 c-13 -7 -20 -16 -16 -19 3 -4 -1 -7 -10 -7 -9 0 -17 -4
-17 -10 0 -5 4 -10 9 -10 6 0 13 5 16 10 8 14 45 13 45 -1 0 -14 68 -5 84 11
8 8 6 15 -8 26 -24 17 -72 17 -103 0z m54 -2 c-3 -3 -12 -4 -19 -1 -8 3 -5 6
6 6 11 1 17 -2 13 -5z m37 -15 c-8 -14 -21 -11 -21 5 0 8 6 12 14 9 7 -3 10
-9 7 -14z"/>
<path d="M4785 4631 c-32 -14 -186 -59 -228 -67 -28 -5 -35 -10 -28 -17 8 -8
14 -8 23 1 7 7 23 12 38 11 l25 -1 -25 -7 c-50 -14 2 -23 188 -33 178 -10 456
-1 552 17 19 4 41 7 48 7 42 4 -16 27 -103 42 -11 2 -31 8 -45 14 -48 20 -129
42 -155 42 -46 0 -118 -22 -103 -31 7 -5 9 -9 5 -9 -4 0 -19 7 -32 16 -29 19
-130 28 -160 15z m105 -9 c-6 -2 -8 -7 -5 -12 3 -4 -12 -4 -33 1 -20 5 -46 6
-57 3 -16 -4 -17 -3 -5 5 8 5 36 9 62 8 26 -1 43 -4 38 -5z m160 -14 c-12 -5
-25 -6 -28 -3 -3 3 0 5 7 5 7 0 10 4 7 9 -4 5 4 7 16 3 l22 -5 -24 -9z m73 7
c-1 -5 -7 -11 -15 -13 -10 -3 -9 -1 1 6 11 8 9 11 -10 15 l-24 5 25 -1 c14 -1
24 -6 23 -12z m-193 1 c0 -3 -4 -8 -10 -11 -5 -3 -10 -1 -10 4 0 6 5 11 10 11
6 0 10 -2 10 -4z m237 -12 c-3 -3 -12 -4 -19 -1 -8 3 -5 6 6 6 11 1 17 -2 13
-5z m-474 -41 c-7 -2 -19 -2 -25 0 -7 3 -2 5 12 5 14 0 19 -2 13 -5z m607 -3
c0 -5 -4 -10 -10 -10 -5 0 -10 5 -10 10 0 6 5 10 10 10 6 0 10 -4 10 -10z m53
-7 c-7 -2 -19 -2 -25 0 -7 3 -2 5 12 5 14 0 19 -2 13 -5z m-693 -13 c0 -5 -4
-10 -10 -10 -5 0 -10 5 -10 10 0 6 5 10 10 10 6 0 10 -4 10 -10z m113 3 c-13
-2 -33 -2 -45 0 -13 2 -3 4 22 4 25 0 35 -2 23 -4z m410 0 c-13 -2 -33 -2 -45
0 -13 2 -3 4 22 4 25 0 35 -2 23 -4z"/>
<path d="M4245 3860 c-3 -6 1 -7 9 -4 18 7 21 14 7 14 -6 0 -13 -4 -16 -10z"/>
<path d="M4252 3837 c-9 -10 -6 -13 13 -12 13 0 27 4 31 8 5 4 0 5 -10 1 -14
-5 -17 -4 -12 4 10 16 -9 15 -22 -1z"/>
<path d="M5502 3791 c-11 -7 -11 -9 0 -14 9 -3 15 1 15 9 0 8 -1 14 -1 14 -1
0 -7 -4 -14 -9z"/>
<path d="M5480 3766 c0 -3 9 -10 20 -16 11 -6 20 -8 20 -6 0 3 -9 10 -20 16
-11 6 -20 8 -20 6z"/>
<path d="M4407 3739 c7 -7 15 -10 18 -7 3 3 -2 9 -12 12 -14 6 -15 5 -6 -5z"/>
<path d="M4700 3606 c0 -2 7 -7 16 -10 8 -3 12 -2 9 4 -6 10 -25 14 -25 6z"/>
<path d="M5116 3582 c-3 -5 1 -9 9 -9 8 0 12 4 9 9 -3 4 -7 8 -9 8 -2 0 -6 -4
-9 -8z"/>
<path d="M4708 3573 c7 -3 16 -2 19 1 4 3 -2 6 -13 5 -11 0 -14 -3 -6 -6z"/>
</g>
</svg>
